<?xml version="1.0" encoding="UTF-8" standalone="no"?>
<svg width="384px" height="100px" viewBox="0 0 384 100" version="1.1" xmlns="http://www.w3.org/2000/svg" xmlns:xlink="http://www.w3.org/1999/xlink" xmlns:sketch="http://www.bohemiancoding.com/sketch/ns">
    <!-- Generator: Sketch 3.4 (15575) - http://www.bohemiancoding.com/sketch -->
    <title>labquest</title>
    <desc>Created with Sketch.</desc>
    <defs></defs>
    <g id="Page-1" stroke="none" stroke-width="1" fill="none" fill-rule="evenodd" sketch:type="MSPage">
        <g id="labquest" sketch:type="MSLayerGroup">
            <path d="M241.204,60.682 L248.355,67.841 L258.961,67.841 L251.903,60.94 C253.852,57.935 254.893,54.109 254.842,50.11 C254.696,41.323 249.161,32.449 237.121,32.449 C231.965,32.449 227.57,34.126 224.41,37.302 C221.168,40.566 219.322,45.378 219.349,50.506 C219.4,59.421 224.911,68.42 237.12,68.42 C239.833,68.42 242.272,67.986 244.411,67.135 L238.626,61.339 C238.137,61.401 237.636,61.445 237.12,61.445 C230.405,61.445 226.796,56.011 226.704,50.639 C226.645,47.268 227.778,44.153 229.805,42.09 C231.64,40.221 234.105,39.276 237.12,39.276 C246.302,39.276 247.377,47.451 247.485,49.954 C247.622,53.164 246.479,56.356 244.438,58.487 C243.518,59.449 242.428,60.182 241.204,60.682 L241.204,60.682 Z" id="Shape" fill="#353C45" sketch:type="MSShapeGroup"></path>
            <path d="M289.005,53.036 L289.005,33.309 L281.605,33.309 L281.605,53.036 C281.605,58.532 278.835,61.684 274.007,61.684 C268.874,61.684 265.933,58.532 265.933,53.036 L265.933,33.309 L258.529,33.309 L258.529,53.036 C258.529,62.469 264.586,68.558 273.959,68.558 C283.239,68.558 289.005,62.613 289.005,53.036 L289.005,53.036 Z" id="Shape" fill="#353C45" sketch:type="MSShapeGroup"></path>
            <path d="M338.552,68.704 C345.618,68.704 353.167,65.757 353.167,57.48 C353.167,49.131 346.452,47.151 339.19,46.256 C335.022,45.76 332.245,44.953 332.245,42.623 C332.245,40.232 334.679,38.752 338.599,38.752 C342.087,38.752 345.037,40.526 346.038,42.201 L346.315,42.656 L352.305,39.576 L352.057,39.07 C349.823,34.519 345.106,32.111 338.401,32.111 C331.676,32.164 324.891,35.377 324.891,42.429 C324.891,50.426 331.786,52.322 338.537,53.124 C343.467,53.656 345.764,55.037 345.764,57.478 C345.764,61.599 340.317,61.922 338.645,61.922 C334.331,61.922 331.012,60.069 329.764,56.977 L329.53,56.393 L323.257,59.647 L323.452,60.129 C325.796,65.901 330.731,68.704 338.552,68.704 L338.552,68.704 Z" id="Shape" fill="#353C45" sketch:type="MSShapeGroup"></path>
            <path d="M355.179,40.137 L365.784,40.137 L365.784,67.841 L373.235,67.841 L373.235,40.137 L383.841,40.137 L383.841,33.257 L355.179,33.257 L355.179,40.137 Z" id="Shape" fill="#353C45" sketch:type="MSShapeGroup"></path>
            <path d="M92.556,92.592 C102.395,64.467 102.395,36.344 92.556,8.224 C64.43,-1.619 36.306,-1.619 8.184,8.224 C-1.655,36.344 -1.655,64.467 8.184,92.592 C36.306,102.434 64.43,102.434 92.556,92.592 L92.556,92.592 Z M28.299,27.385 C33.838,21.812 41.545,18.869 50.588,18.869 C71.697,18.869 81.407,34.427 81.664,49.845 C81.754,56.86 79.93,63.56 76.513,68.836 L88.89,80.942 L70.288,80.942 L57.743,68.384 C59.887,67.509 61.801,66.222 63.416,64.533 C67.001,60.796 69.002,55.201 68.766,49.569 C68.574,45.177 66.689,30.843 50.587,30.843 C45.294,30.843 40.977,32.504 37.759,35.777 C34.205,39.395 32.218,44.859 32.321,50.768 C32.482,60.185 38.807,69.721 50.587,69.721 C51.492,69.721 52.365,69.645 53.229,69.536 L63.372,79.696 C59.621,81.188 55.345,81.945 50.587,81.945 C29.177,81.945 19.51,66.171 19.423,50.54 C19.376,41.544 22.61,33.105 28.299,27.385 L28.299,27.385 Z M52.635,45.008 C52.635,46.781 51.198,48.219 49.425,48.219 C47.652,48.219 46.215,46.781 46.215,45.008 C46.215,43.234 47.652,41.799 49.425,41.799 C51.198,41.799 52.635,43.234 52.635,45.008 L52.635,45.008 Z M50.51,35.917 C50.51,35.033 51.232,34.314 52.117,34.314 C53.005,34.314 53.718,35.033 53.718,35.917 C53.718,36.806 53.005,37.523 52.117,37.523 C51.232,37.523 50.51,36.807 50.51,35.917 L50.51,35.917 Z M51.503,55.864 C54.606,55.864 57.122,58.379 57.122,61.483 C57.122,64.583 54.606,67.1 51.503,67.1 C48.401,67.1 45.884,64.583 45.884,61.483 C45.885,58.379 48.401,55.864 51.503,55.864 L51.503,55.864 Z M54.154,51.24 C54.154,48.579 56.313,46.425 58.973,46.425 C61.632,46.425 63.79,48.579 63.79,51.24 C63.79,53.9 61.632,56.054 58.973,56.054 C56.312,56.054 54.154,53.9 54.154,51.24 L54.154,51.24 Z" id="Shape" fill="#75BA20" sketch:type="MSShapeGroup"></path>
            <path d="M148.434,64.86 L129.897,64.86 L129.897,34.141 L129.897,33.856 L129.61,33.856 L127.032,33.856 L126.743,33.856 L126.743,34.141 L126.743,67.58 L126.743,67.868 L127.032,67.868 L148.434,67.868 L148.717,67.868 L148.717,67.58 L148.717,65.149 L148.717,64.86 L148.434,64.86 L148.434,64.86 Z" id="Shape" fill="#75BA20" sketch:type="MSShapeGroup"></path>
            <path d="M169.371,34.026 L169.296,33.856 L169.109,33.856 L166.293,33.856 L166.106,33.856 L166.031,34.026 L151.031,67.463 L150.851,67.868 L151.292,67.868 L154.062,67.868 L154.249,67.868 L154.324,67.697 L167.678,37.335 L181.079,67.697 L181.154,67.868 L181.34,67.868 L184.112,67.868 L184.551,67.868 L184.37,67.463 L169.371,34.026 L169.371,34.026 Z" id="Shape" fill="#75BA20" sketch:type="MSShapeGroup"></path>
            <path d="M294.169,67.841 L320.349,67.841 L320.349,60.489 L301.571,60.489 L301.571,54.086 L315.075,54.086 L315.075,47.068 L301.571,47.068 L301.571,40.516 L320.349,40.516 L320.349,33.257 L294.169,33.257 L294.169,67.841 Z" id="Shape" fill="#353C45" sketch:type="MSShapeGroup"></path>
            <g id="Group" transform="translate(376.000000, 41.000000)" fill="#353C45" sketch:type="MSShapeGroup">
                <path d="M6.841,1.573 C6.175,0.901 5.374,0.565 4.437,0.565 C3.484,0.565 2.671,0.901 2.001,1.573 C1.331,2.247 0.995,3.052 0.995,3.993 C0.995,4.939 1.331,5.752 2.005,6.424 C2.677,7.097 3.484,7.437 4.427,7.437 C5.365,7.437 6.167,7.097 6.837,6.424 C7.507,5.752 7.841,4.94 7.841,3.999 C7.841,3.052 7.507,2.247 6.841,1.573 L6.841,1.573 Z M6.397,6.04 C5.846,6.602 5.186,6.886 4.42,6.886 C3.649,6.886 2.988,6.603 2.434,6.04 C1.881,5.478 1.606,4.794 1.606,3.993 C1.606,3.204 1.881,2.524 2.432,1.964 C2.983,1.396 3.649,1.115 4.432,1.115 C5.198,1.115 5.856,1.395 6.403,1.964 C6.954,2.531 7.229,3.209 7.229,3.993 C7.229,4.793 6.952,5.477 6.397,6.04 L6.397,6.04 Z" id="Shape"></path>
                <path d="M6.144,3.198 C6.144,2.85 6.023,2.569 5.779,2.35 C5.531,2.129 5.158,2.024 4.654,2.024 L2.82,2.024 L2.82,5.979 L3.666,5.979 L3.666,4.376 L4.611,4.376 L5.252,5.979 L6.143,5.979 L5.414,4.238 C5.901,4.038 6.144,3.687 6.144,3.198 L6.144,3.198 Z M4.534,3.749 L3.665,3.749 L3.665,2.645 L4.595,2.645 C5.046,2.645 5.271,2.826 5.271,3.187 C5.271,3.565 5.026,3.749 4.534,3.749 L4.534,3.749 Z" id="Shape"></path>
            </g>
            <g id="Group" transform="translate(316.000000, 73.000000)" fill="#75BA20" sketch:type="MSShapeGroup">
                <path d="M7.819,2.28 C8.563,2.915 8.934,3.883 8.934,5.193 C8.934,6.502 8.553,7.458 7.789,8.065 C7.025,8.67 5.859,8.971 4.297,8.971 L2.885,8.971 L2.885,11.93 L0.52,11.93 L0.52,1.334 L4.264,1.334 C5.894,1.334 7.079,1.652 7.819,2.28 L7.819,2.28 Z M6.083,6.452 C6.366,6.133 6.509,5.668 6.509,5.056 C6.509,4.444 6.323,4.009 5.956,3.751 C5.587,3.492 5.015,3.364 4.237,3.364 L2.885,3.364 L2.885,6.926 L4.475,6.926 C5.265,6.927 5.8,6.769 6.083,6.452 L6.083,6.452 Z" id="Shape"></path>
                <path d="M12.79,7.534 L12.79,11.93 L10.519,11.93 L10.519,0.684 L12.79,0.684 L12.79,4.682 C13.481,3.988 14.249,3.638 15.104,3.638 C15.956,3.638 16.678,3.94 17.262,4.549 C17.848,5.155 18.141,5.961 18.141,6.975 L18.141,11.93 L15.87,11.93 L15.87,7.472 C15.87,6.218 15.411,5.595 14.491,5.595 C14.036,5.595 13.639,5.756 13.3,6.084 C12.964,6.413 12.79,6.896 12.79,7.534 L12.79,7.534 Z" id="Shape"></path>
                <path d="M27.146,11.93 L25.007,11.93 L25.007,10.944 C24.421,11.68 23.696,12.049 22.833,12.049 C21.968,12.049 21.245,11.799 20.657,11.301 C20.071,10.801 19.778,10.134 19.778,9.299 C19.778,8.465 20.083,7.841 20.688,7.428 C21.295,7.013 22.122,6.807 23.174,6.807 L24.869,6.807 L24.869,6.759 C24.869,5.89 24.41,5.455 23.49,5.455 C23.095,5.455 22.679,5.533 22.238,5.689 C21.8,5.847 21.429,6.043 21.127,6.273 L20.111,4.804 C21.181,4.026 22.406,3.637 23.779,3.637 C24.769,3.637 25.576,3.887 26.205,4.382 C26.83,4.876 27.144,5.658 27.144,6.729 L27.144,11.93 L27.146,11.93 Z M24.854,8.821 L24.854,8.426 L23.43,8.426 C22.524,8.426 22.067,8.709 22.067,9.278 C22.067,9.569 22.176,9.794 22.393,9.95 C22.608,10.105 22.92,10.183 23.325,10.183 C23.731,10.183 24.087,10.061 24.393,9.814 C24.704,9.565 24.854,9.235 24.854,8.821 L24.854,8.821 Z" id="Shape"></path>
                <path d="M33.55,5.772 C32.874,5.772 32.368,6.015 32.034,6.497 C31.702,6.976 31.534,7.608 31.534,8.398 L31.534,11.93 L29.259,11.93 L29.259,3.776 L31.534,3.776 L31.534,4.849 C31.829,4.516 32.192,4.233 32.632,4.001 C33.071,3.771 33.521,3.648 33.976,3.638 L33.99,5.772 L33.55,5.772 L33.55,5.772 Z" id="Shape"></path>
                <path d="M42.874,7.534 L42.874,11.93 L40.587,11.93 L40.587,7.472 C40.587,6.825 40.489,6.352 40.288,6.048 C40.093,5.745 39.776,5.595 39.335,5.595 C38.896,5.595 38.509,5.756 38.169,6.084 C37.829,6.412 37.661,6.896 37.661,7.533 L37.661,11.929 L35.388,11.929 L35.388,3.775 L37.661,3.775 L37.661,4.7 C38.286,3.993 39.003,3.638 39.811,3.638 C40.327,3.638 40.793,3.787 41.213,4.093 C41.633,4.396 41.949,4.766 42.16,5.199 C42.472,4.704 42.896,4.321 43.428,4.049 C43.957,3.776 44.489,3.638 45.026,3.638 C45.985,3.638 46.76,3.924 47.344,4.494 C47.928,5.066 48.223,5.89 48.223,6.974 L48.223,11.929 L45.936,11.929 L45.936,7.471 C45.936,6.217 45.477,5.594 44.557,5.594 C44.102,5.594 43.707,5.755 43.373,6.083 C43.039,6.411 42.874,6.896 42.874,7.534 L42.874,7.534 Z" id="Shape"></path>
                <path d="M57.235,11.93 L55.098,11.93 L55.098,10.944 C54.512,11.68 53.786,12.049 52.922,12.049 C52.058,12.049 51.332,11.799 50.748,11.301 C50.162,10.801 49.869,10.134 49.869,9.299 C49.869,8.465 50.17,7.841 50.777,7.428 C51.382,7.013 52.211,6.807 53.263,6.807 L54.958,6.807 L54.958,6.759 C54.958,5.89 54.503,5.455 53.579,5.455 C53.186,5.455 52.768,5.533 52.329,5.689 C51.891,5.847 51.52,6.043 51.216,6.273 L50.202,4.804 C51.272,4.026 52.493,3.637 53.868,3.637 C54.858,3.637 55.667,3.887 56.292,4.382 C56.921,4.876 57.233,5.658 57.233,6.729 L57.233,11.93 L57.235,11.93 Z M54.946,8.821 L54.946,8.426 L53.522,8.426 C52.614,8.426 52.157,8.709 52.157,9.278 C52.157,9.569 52.268,9.794 52.485,9.95 C52.702,10.105 53.014,10.183 53.417,10.183 C53.82,10.183 54.177,10.061 54.485,9.814 C54.794,9.565 54.946,9.235 54.946,8.821 L54.946,8.821 Z" id="Shape"></path>
            </g>
            <path d="M208.244,50.411 C211.254,49.153 213.09,46.483 213.09,43.264 C213.09,36.324 207.016,33.857 201.816,33.857 L188.107,33.857 L187.823,33.857 L187.823,34.142 L187.823,67.58 L187.823,67.868 L188.107,67.868 L201.816,67.868 C205.553,67.868 214.234,66.99 214.234,58.843 C214.234,54.971 211.91,51.745 208.244,50.411 L208.244,50.411 Z M190.97,36.624 L201.816,36.624 C205.932,36.624 210.08,38.681 210.08,43.264 C210.08,48.003 205.77,48.999 202.149,48.999 L190.97,48.999 L190.97,36.624 L190.97,36.624 Z M201.816,64.81 L190.97,64.81 L190.97,52.006 L202.149,52.006 C206.462,52.006 211.087,53.791 211.13,58.797 C211.131,63.77 206.068,64.81 201.816,64.81 L201.816,64.81 Z" id="Shape" fill="#75BA20" sketch:type="MSShapeGroup"></path>
        </g>
    </g>
</svg>